<?xml version="1.0" encoding="UTF-8"?>
<svg xmlns="http://www.w3.org/2000/svg" xmlns:xlink="http://www.w3.org/1999/xlink" width="200px" height="300px" viewBox="0 0 200 300" version="1.1">
<defs>
<clipPath id="clip1">
  <path d="M 0 0 L 200 0 L 200 145 L 0 145 Z M 0 0 "/>
</clipPath>
<clipPath id="clip2">
  <path d="M 7.648438 0 L 192.351562 0 C 196.574219 0 200 3.617188 200 8.078125 L 200 291.921875 C 200 296.382812 196.574219 300 192.351562 300 L 7.648438 300 C 3.425781 300 0 296.382812 0 291.921875 L 0 8.078125 C 0 3.617188 3.425781 0 7.648438 0 Z M 7.648438 0 "/>
</clipPath>
<clipPath id="clip3">
  <path d="M 0 140 L 200 140 L 200 269 L 0 269 Z M 0 140 "/>
</clipPath>
<clipPath id="clip4">
  <path d="M 7.648438 0 L 192.351562 0 C 196.574219 0 200 3.617188 200 8.078125 L 200 291.921875 C 200 296.382812 196.574219 300 192.351562 300 L 7.648438 300 C 3.425781 300 0 296.382812 0 291.921875 L 0 8.078125 C 0 3.617188 3.425781 0 7.648438 0 Z M 7.648438 0 "/>
</clipPath>
<clipPath id="clip5">
  <path d="M 0 135 L 200 135 L 200 300 L 0 300 Z M 0 135 "/>
</clipPath>
<clipPath id="clip6">
  <path d="M 7.648438 0 L 192.351562 0 C 196.574219 0 200 3.617188 200 8.078125 L 200 291.921875 C 200 296.382812 196.574219 300 192.351562 300 L 7.648438 300 C 3.425781 300 0 296.382812 0 291.921875 L 0 8.078125 C 0 3.617188 3.425781 0 7.648438 0 Z M 7.648438 0 "/>
</clipPath>
<clipPath id="clip7">
  <path d="M 0 131 L 112 131 L 112 300 L 0 300 Z M 0 131 "/>
</clipPath>
<clipPath id="clip8">
  <path d="M 7.648438 0 L 192.351562 0 C 196.574219 0 200 3.617188 200 8.078125 L 200 291.921875 C 200 296.382812 196.574219 300 192.351562 300 L 7.648438 300 C 3.425781 300 0 296.382812 0 291.921875 L 0 8.078125 C 0 3.617188 3.425781 0 7.648438 0 Z M 7.648438 0 "/>
</clipPath>
<clipPath id="clip9">
  <path d="M 0 135 L 116 135 L 116 300 L 0 300 Z M 0 135 "/>
</clipPath>
<clipPath id="clip10">
  <path d="M 7.648438 0 L 192.351562 0 C 196.574219 0 200 3.617188 200 8.078125 L 200 291.921875 C 200 296.382812 196.574219 300 192.351562 300 L 7.648438 300 C 3.425781 300 0 296.382812 0 291.921875 L 0 8.078125 C 0 3.617188 3.425781 0 7.648438 0 Z M 7.648438 0 "/>
</clipPath>
<clipPath id="clip11">
  <path d="M 0 136 L 200 136 L 200 300 L 0 300 Z M 0 136 "/>
</clipPath>
<clipPath id="clip12">
  <path d="M 7.648438 0 L 192.351562 0 C 196.574219 0 200 3.617188 200 8.078125 L 200 291.921875 C 200 296.382812 196.574219 300 192.351562 300 L 7.648438 300 C 3.425781 300 0 296.382812 0 291.921875 L 0 8.078125 C 0 3.617188 3.425781 0 7.648438 0 Z M 7.648438 0 "/>
</clipPath>
<clipPath id="clip13">
  <path d="M 0 136 L 200 136 L 200 240 L 0 240 Z M 0 136 "/>
</clipPath>
<clipPath id="clip14">
  <path d="M 7.648438 0 L 192.351562 0 C 196.574219 0 200 3.617188 200 8.078125 L 200 291.921875 C 200 296.382812 196.574219 300 192.351562 300 L 7.648438 300 C 3.425781 300 0 296.382812 0 291.921875 L 0 8.078125 C 0 3.617188 3.425781 0 7.648438 0 Z M 7.648438 0 "/>
</clipPath>
<clipPath id="clip15">
  <path d="M 0 136 L 200 136 L 200 271 L 0 271 Z M 0 136 "/>
</clipPath>
<clipPath id="clip16">
  <path d="M 7.648438 0 L 192.351562 0 C 196.574219 0 200 3.617188 200 8.078125 L 200 291.921875 C 200 296.382812 196.574219 300 192.351562 300 L 7.648438 300 C 3.425781 300 0 296.382812 0 291.921875 L 0 8.078125 C 0 3.617188 3.425781 0 7.648438 0 Z M 7.648438 0 "/>
</clipPath>
<clipPath id="clip17">
  <path d="M 0 137 L 200 137 L 200 251 L 0 251 Z M 0 137 "/>
</clipPath>
<clipPath id="clip18">
  <path d="M 7.648438 0 L 192.351562 0 C 196.574219 0 200 3.617188 200 8.078125 L 200 291.921875 C 200 296.382812 196.574219 300 192.351562 300 L 7.648438 300 C 3.425781 300 0 296.382812 0 291.921875 L 0 8.078125 C 0 3.617188 3.425781 0 7.648438 0 Z M 7.648438 0 "/>
</clipPath>
<clipPath id="clip19">
  <path d="M 66 99 L 176 99 L 176 141 L 66 141 Z M 66 99 "/>
</clipPath>
<clipPath id="clip20">
  <path d="M 7.648438 0 L 192.351562 0 C 196.574219 0 200 3.617188 200 8.078125 L 200 291.921875 C 200 296.382812 196.574219 300 192.351562 300 L 7.648438 300 C 3.425781 300 0 296.382812 0 291.921875 L 0 8.078125 C 0 3.617188 3.425781 0 7.648438 0 Z M 7.648438 0 "/>
</clipPath>
<clipPath id="clip21">
  <path d="M 72 116 L 156 116 L 156 143 L 72 143 Z M 72 116 "/>
</clipPath>
<clipPath id="clip22">
  <path d="M 7.648438 0 L 192.351562 0 C 196.574219 0 200 3.617188 200 8.078125 L 200 291.921875 C 200 296.382812 196.574219 300 192.351562 300 L 7.648438 300 C 3.425781 300 0 296.382812 0 291.921875 L 0 8.078125 C 0 3.617188 3.425781 0 7.648438 0 Z M 7.648438 0 "/>
</clipPath>
<clipPath id="clip23">
  <path d="M 0 57 L 84 57 L 84 144 L 0 144 Z M 0 57 "/>
</clipPath>
<clipPath id="clip24">
  <path d="M 7.648438 0 L 192.351562 0 C 196.574219 0 200 3.617188 200 8.078125 L 200 291.921875 C 200 296.382812 196.574219 300 192.351562 300 L 7.648438 300 C 3.425781 300 0 296.382812 0 291.921875 L 0 8.078125 C 0 3.617188 3.425781 0 7.648438 0 Z M 7.648438 0 "/>
</clipPath>
<clipPath id="clip25">
  <path d="M 135 106 L 200 106 L 200 142 L 135 142 Z M 135 106 "/>
</clipPath>
<clipPath id="clip26">
  <path d="M 7.648438 0 L 192.351562 0 C 196.574219 0 200 3.617188 200 8.078125 L 200 291.921875 C 200 296.382812 196.574219 300 192.351562 300 L 7.648438 300 C 3.425781 300 0 296.382812 0 291.921875 L 0 8.078125 C 0 3.617188 3.425781 0 7.648438 0 Z M 7.648438 0 "/>
</clipPath>
<clipPath id="clip27">
  <path d="M 19 163 L 155 163 L 155 290 L 19 290 Z M 19 163 "/>
</clipPath>
<clipPath id="clip28">
  <path d="M 7.648438 0 L 192.351562 0 C 196.574219 0 200 3.617188 200 8.078125 L 200 291.921875 C 200 296.382812 196.574219 300 192.351562 300 L 7.648438 300 C 3.425781 300 0 296.382812 0 291.921875 L 0 8.078125 C 0 3.617188 3.425781 0 7.648438 0 Z M 7.648438 0 "/>
</clipPath>
<clipPath id="clip29">
  <path d="M 19 162 L 136 162 L 136 287 L 19 287 Z M 19 162 "/>
</clipPath>
<clipPath id="clip30">
  <path d="M 7.648438 0 L 192.351562 0 C 196.574219 0 200 3.617188 200 8.078125 L 200 291.921875 C 200 296.382812 196.574219 300 192.351562 300 L 7.648438 300 C 3.425781 300 0 296.382812 0 291.921875 L 0 8.078125 C 0 3.617188 3.425781 0 7.648438 0 Z M 7.648438 0 "/>
</clipPath>
<clipPath id="clip31">
  <path d="M 19 162 L 117 162 L 117 280 L 19 280 Z M 19 162 "/>
</clipPath>
<clipPath id="clip32">
  <path d="M 7.648438 0 L 192.351562 0 C 196.574219 0 200 3.617188 200 8.078125 L 200 291.921875 C 200 296.382812 196.574219 300 192.351562 300 L 7.648438 300 C 3.425781 300 0 296.382812 0 291.921875 L 0 8.078125 C 0 3.617188 3.425781 0 7.648438 0 Z M 7.648438 0 "/>
</clipPath>
<clipPath id="clip33">
  <path d="M 0 59 L 68 59 L 68 103 L 0 103 Z M 0 59 "/>
</clipPath>
<clipPath id="clip34">
  <path d="M 7.648438 0 L 192.351562 0 C 196.574219 0 200 3.617188 200 8.078125 L 200 291.921875 C 200 296.382812 196.574219 300 192.351562 300 L 7.648438 300 C 3.425781 300 0 296.382812 0 291.921875 L 0 8.078125 C 0 3.617188 3.425781 0 7.648438 0 Z M 7.648438 0 "/>
</clipPath>
<clipPath id="clip35">
  <path d="M 0 100 L 83 100 L 83 144 L 0 144 Z M 0 100 "/>
</clipPath>
<clipPath id="clip36">
  <path d="M 7.648438 0 L 192.351562 0 C 196.574219 0 200 3.617188 200 8.078125 L 200 291.921875 C 200 296.382812 196.574219 300 192.351562 300 L 7.648438 300 C 3.425781 300 0 296.382812 0 291.921875 L 0 8.078125 C 0 3.617188 3.425781 0 7.648438 0 Z M 7.648438 0 "/>
</clipPath>
<clipPath id="clip37">
  <path d="M 135 120 L 200 120 L 200 143 L 135 143 Z M 135 120 "/>
</clipPath>
<clipPath id="clip38">
  <path d="M 7.648438 0 L 192.351562 0 C 196.574219 0 200 3.617188 200 8.078125 L 200 291.921875 C 200 296.382812 196.574219 300 192.351562 300 L 7.648438 300 C 3.425781 300 0 296.382812 0 291.921875 L 0 8.078125 C 0 3.617188 3.425781 0 7.648438 0 Z M 7.648438 0 "/>
</clipPath>
<clipPath id="clip39">
  <path d="M 0 114 L 200 114 L 200 171 L 0 171 Z M 0 114 "/>
</clipPath>
<clipPath id="clip40">
  <path d="M 7.648438 0 L 192.351562 0 C 196.574219 0 200 3.617188 200 8.078125 L 200 291.921875 C 200 296.382812 196.574219 300 192.351562 300 L 7.648438 300 C 3.425781 300 0 296.382812 0 291.921875 L 0 8.078125 C 0 3.617188 3.425781 0 7.648438 0 Z M 7.648438 0 "/>
</clipPath>
</defs>
<g id="surface1">
<g clip-path="url(#clip1)" clip-rule="nonzero">
<g clip-path="url(#clip2)" clip-rule="nonzero">
<path style=" stroke:none;fill-rule:nonzero;fill:rgb(70.588237%,85.09804%,92.941177%);fill-opacity:1;" d="M -2.171875 -10.28125 L 201.292969 -10.28125 L 201.292969 144.570312 L -2.171875 144.570312 Z M -2.171875 -10.28125 "/>
</g>
</g>
<g clip-path="url(#clip3)" clip-rule="nonzero">
<g clip-path="url(#clip4)" clip-rule="nonzero">
<path style=" stroke:none;fill-rule:nonzero;fill:rgb(26.274511%,47.843137%,62.352943%);fill-opacity:1;" d="M 205.78125 268.871094 L -7.160156 140.882812 C 65.167969 143.710938 133.035156 137.363281 205.292969 141.933594 Z M 205.78125 268.871094 "/>
</g>
</g>
<g clip-path="url(#clip5)" clip-rule="nonzero">
<g clip-path="url(#clip6)" clip-rule="nonzero">
<path style=" stroke:none;fill-rule:nonzero;fill:rgb(64.313728%,57.647061%,64.313728%);fill-opacity:1;" d="M -6.660156 135.089844 L 206.277344 302.054688 L 106.042969 301 Z M -6.660156 135.089844 "/>
</g>
</g>
<g clip-path="url(#clip7)" clip-rule="nonzero">
<g clip-path="url(#clip8)" clip-rule="nonzero">
<path style=" stroke:none;fill-rule:nonzero;fill:rgb(14.901961%,47.058824%,20.392157%);fill-opacity:1;" d="M -6.160156 131.929688 L 111.527344 301 L -4.664062 301.527344 Z M -6.160156 131.929688 "/>
</g>
</g>
<g clip-path="url(#clip9)" clip-rule="nonzero">
<g clip-path="url(#clip10)" clip-rule="nonzero">
<path style=" stroke:none;fill-rule:nonzero;fill:rgb(43.137255%,63.529414%,12.941177%);fill-opacity:1;" d="M -4.664062 135.089844 L 115.519531 302.582031 L 93.078125 301 L -3.667969 138.25 L 72.132812 299.945312 L 54.179688 300.472656 Z M -4.664062 135.089844 "/>
</g>
</g>
<g clip-path="url(#clip11)" clip-rule="nonzero">
<g clip-path="url(#clip12)" clip-rule="nonzero">
<path style=" stroke:none;fill-rule:nonzero;fill:rgb(96.862745%,81.568629%,25.882354%);fill-opacity:1;" d="M 204.78125 304.160156 L 204.78125 268.871094 L -6.660156 136.144531 Z M 204.78125 304.160156 "/>
</g>
</g>
<g clip-path="url(#clip13)" clip-rule="nonzero">
<g clip-path="url(#clip14)" clip-rule="nonzero">
<path style=" stroke:none;fill-rule:nonzero;fill:rgb(95.294118%,93.333334%,90.588236%);fill-opacity:1;" d="M 203.285156 233.582031 L -6.160156 136.667969 L 202.789062 239.902344 Z M 203.285156 233.582031 "/>
</g>
</g>
<g clip-path="url(#clip15)" clip-rule="nonzero">
<g clip-path="url(#clip16)" clip-rule="nonzero">
<path style=" stroke:none;fill-rule:nonzero;fill:rgb(97.254902%,95.294118%,81.960785%);fill-opacity:1;" d="M 203.285156 270.976562 L -7.65625 136.144531 L 203.285156 259.390625 Z M 203.285156 270.976562 "/>
</g>
</g>
<g clip-path="url(#clip17)" clip-rule="nonzero">
<g clip-path="url(#clip18)" clip-rule="nonzero">
<path style=" stroke:none;fill-rule:nonzero;fill:rgb(95.294118%,93.333334%,90.588236%);fill-opacity:1;" d="M 201.789062 250.964844 L -5.660156 137.722656 L 202.289062 247.804688 Z M 201.789062 250.964844 "/>
</g>
</g>
<g clip-path="url(#clip19)" clip-rule="nonzero">
<g clip-path="url(#clip20)" clip-rule="nonzero">
<path style=" stroke:none;fill-rule:nonzero;fill:rgb(74.901962%,69.01961%,55.686277%);fill-opacity:1;" d="M 66.648438 117.183594 L 99.558594 99.800781 L 175.859375 123.503906 L 153.417969 140.882812 L 75.625 140.882812 Z M 66.648438 117.183594 "/>
</g>
</g>
<g clip-path="url(#clip21)" clip-rule="nonzero">
<g clip-path="url(#clip22)" clip-rule="nonzero">
<path style=" stroke:none;fill-rule:nonzero;fill:rgb(72.549021%,63.921571%,45.882353%);fill-opacity:1;" d="M 72.132812 128.242188 L 90.582031 118.234375 L 91.582031 122.449219 L 102.054688 117.183594 L 106.542969 128.242188 L 112.027344 116.65625 L 119.507812 128.242188 L 135.964844 120.867188 L 137.460938 127.1875 L 155.414062 134.035156 L 155.414062 142.464844 L 79.113281 141.410156 Z M 72.132812 128.242188 "/>
</g>
</g>
<g clip-path="url(#clip23)" clip-rule="nonzero">
<g clip-path="url(#clip24)" clip-rule="nonzero">
<path style=" stroke:none;fill-rule:nonzero;fill:rgb(64.705884%,50.980395%,25.098041%);fill-opacity:1;" d="M -5.660156 57.136719 L 65.152344 95.058594 L 83.601562 143.515625 L -4.164062 141.410156 Z M -5.660156 57.136719 "/>
</g>
</g>
<g clip-path="url(#clip25)" clip-rule="nonzero">
<g clip-path="url(#clip26)" clip-rule="nonzero">
<path style=" stroke:none;fill-rule:nonzero;fill:rgb(71.764708%,62.352943%,43.529412%);fill-opacity:1;" d="M 204.285156 141.9375 L 135.964844 141.9375 L 201.789062 106.121094 L 202.289062 140.882812 Z M 204.285156 141.9375 "/>
</g>
</g>
<g clip-path="url(#clip27)" clip-rule="nonzero">
<g clip-path="url(#clip28)" clip-rule="nonzero">
<path style=" stroke:none;fill-rule:nonzero;fill:rgb(96.862745%,0%,0%);fill-opacity:1;" d="M 19.8125 163.011719 L 147.941406 289.960938 C 154.796875 289.265625 155.515625 283.550781 154 276.007812 Z M 19.8125 163.011719 "/>
</g>
</g>
<g clip-path="url(#clip29)" clip-rule="nonzero">
<g clip-path="url(#clip30)" clip-rule="nonzero">
<path style=" stroke:none;fill-rule:nonzero;fill:rgb(97.254902%,93.333334%,94.901961%);fill-opacity:1;" d="M 19.796875 162.992188 L 129.625 286.324219 C 135.535156 285.609375 136.179688 280.027344 134.90625 272.671875 Z M 19.796875 162.992188 "/>
</g>
</g>
<g clip-path="url(#clip31)" clip-rule="nonzero">
<g clip-path="url(#clip32)" clip-rule="nonzero">
<path style=" stroke:none;fill-rule:nonzero;fill:rgb(0%,0%,100%);fill-opacity:1;" d="M 19.78125 162.972656 L 111.242188 279.585938 C 116.195312 278.882812 116.757812 273.578125 115.722656 266.597656 Z M 19.78125 162.972656 "/>
</g>
</g>
<g clip-path="url(#clip33)" clip-rule="nonzero">
<g clip-path="url(#clip34)" clip-rule="nonzero">
<path style=" stroke:none;fill-rule:nonzero;fill:rgb(36.078432%,46.666667%,18.039216%);fill-opacity:1;" d="M -2.667969 59.769531 L 64.152344 94.007812 L 67.644531 102.433594 L 48.195312 100.328125 L 41.714844 91.375 L 12.289062 83.472656 L -3.667969 72.414062 Z M -2.667969 59.769531 "/>
</g>
</g>
<g clip-path="url(#clip35)" clip-rule="nonzero">
<g clip-path="url(#clip36)" clip-rule="nonzero">
<path style=" stroke:none;fill-rule:nonzero;fill:rgb(34.509805%,46.27451%,17.254902%);fill-opacity:1;" d="M -2.195312 141.410156 L -1.691406 117.707031 L 11.855469 114.546875 L 17.375 125.082031 L 19.382812 100.855469 L 25.90625 119.816406 L 28.414062 119.289062 L 28.917969 107.175781 L 34.4375 125.082031 L 45.476562 123.503906 L 46.480469 117.183594 L 53.503906 126.136719 L 58.523438 124.027344 L 58.523438 105.59375 L 65.546875 127.1875 L 82.628906 143.039062 Z M -2.195312 141.410156 "/>
</g>
</g>
<g clip-path="url(#clip37)" clip-rule="nonzero">
<g clip-path="url(#clip38)" clip-rule="nonzero">
<path style=" stroke:none;fill-rule:nonzero;fill:rgb(63.921571%,51.372552%,23.921569%);fill-opacity:1;" d="M 135.21875 142.445312 L 167.878906 124.554688 L 165.386719 130.875 L 185.332031 122.449219 L 179.847656 135.089844 L 182.839844 135.089844 L 186.332031 129.824219 L 186.828125 135.617188 L 195.308594 124.554688 L 197.800781 127.714844 L 201.789062 120.867188 L 202.289062 141.9375 Z M 135.21875 142.445312 "/>
</g>
</g>
<g clip-path="url(#clip39)" clip-rule="nonzero">
<g clip-path="url(#clip40)" clip-rule="nonzero">
<path style="fill:none;stroke-width:16.867506;stroke-linecap:butt;stroke-linejoin:miter;stroke:rgb(83.137256%,33.333334%,0%);stroke-opacity:1;stroke-miterlimit:4;" d="M -9.581079 498.805564 L 314.209154 503.793241 L 314.209154 496.74454 L 525.72888 496.74454 L 518.107724 501.443674 L 758.210412 501.443674 " transform="matrix(0.269091,0,0,0.284294,0.793022,0.45408)"/>
</g>
</g>
</g>
</svg>
