<?xml version="1.0" encoding="UTF-8"?>
<svg xmlns="http://www.w3.org/2000/svg" xmlns:xlink="http://www.w3.org/1999/xlink" width="200px" height="300px" viewBox="0 0 200 300" version="1.1">
<g id="surface1">
<path style="fill-rule:nonzero;fill:rgb(100%,100%,100%);fill-opacity:1;stroke-width:0.605879;stroke-linecap:butt;stroke-linejoin:miter;stroke:rgb(50.196081%,50.196081%,50.196081%);stroke-opacity:1;stroke-miterlimit:4;" d="M 7.263294 0.302357 L 179.918332 0.302357 C 183.867286 0.302357 187.06528 3.513595 187.06528 7.472036 L 187.06528 259.436045 C 187.06528 263.394486 183.867286 266.605724 179.918332 266.605724 L 7.263294 266.605724 C 3.314339 266.605724 0.116345 263.394486 0.116345 259.436045 L 0.116345 7.472036 C 0.116345 3.513595 3.314339 0.302357 7.263294 0.302357 Z M 7.263294 0.302357 " transform="matrix(1.066342,0,0,1.123982,0.200155,0)"/>
<path style="fill-rule:nonzero;fill:rgb(100%,100%,100%);fill-opacity:1;stroke-width:0.5;stroke-linecap:butt;stroke-linejoin:miter;stroke:rgb(0%,0%,0%);stroke-opacity:1;stroke-miterlimit:4;" d="M 177.504267 250.031706 C 177.504267 253.882411 174.394191 257.038043 170.584439 257.038043 L 16.69243 257.038043 C 12.890005 257.038043 9.783591 253.882411 9.783591 250.031706 L 9.783591 17.077947 C 9.783591 13.223766 12.890005 10.07161 16.69243 10.07161 L 170.584439 10.07161 C 174.394191 10.07161 177.504267 13.223766 177.504267 17.077947 Z M 177.504267 250.031706 " transform="matrix(1.066342,0,0,1.123982,0.200155,0)"/>
<path style="fill-rule:evenodd;fill:rgb(100%,100%,100%);fill-opacity:1;stroke-width:2.849;stroke-linecap:butt;stroke-linejoin:miter;stroke:rgb(9.019608%,2.352941%,47.843137%);stroke-opacity:1;stroke-miterlimit:10;" d="M 17.128354 11.520837 C 13.890065 11.520837 11.285513 14.085657 11.285513 17.276043 L 11.285513 249.718923 C 11.285513 252.905833 13.890065 255.474128 17.128354 255.474128 L 170.240096 255.474128 C 173.478385 255.474128 176.079274 252.905833 176.079274 249.718923 L 176.079274 17.276043 C 176.079274 14.085657 173.478385 11.520837 170.240096 11.520837 Z M 17.128354 11.520837 " transform="matrix(1.066342,0,0,1.123982,0.200155,0)"/>
<path style=" stroke:none;fill-rule:evenodd;fill:rgb(100%,100%,100%);fill-opacity:1;" d="M 20.226562 19.296875 C 19.355469 19.296875 18.65625 20.023438 18.65625 20.921875 L 18.65625 279.175781 C 18.65625 280.074219 19.355469 280.800781 20.226562 280.800781 L 179.574219 280.800781 C 180.445312 280.800781 181.144531 280.074219 181.144531 279.175781 L 181.144531 20.921875 C 181.144531 20.023438 180.445312 19.296875 179.574219 19.296875 Z M 20.226562 19.296875 "/>
<path style=" stroke:none;fill-rule:evenodd;fill:rgb(19.215687%,20%,56.470591%);fill-opacity:1;" d="M 51.761719 53.347656 C 51.339844 53.347656 51 53.699219 51 54.132812 L 51 246.789062 C 51 247.222656 51.339844 247.574219 51.761719 247.574219 L 147.082031 247.574219 C 147.503906 247.574219 147.84375 247.222656 147.84375 246.789062 L 147.84375 54.132812 C 147.84375 53.699219 147.503906 53.347656 147.082031 53.347656 Z M 51.761719 53.347656 "/>
<path style=" stroke:none;fill-rule:evenodd;fill:rgb(100%,100%,100%);fill-opacity:1;" d="M 66.746094 60.183594 C 61.789062 60.183594 57.792969 64.328125 57.792969 69.480469 L 57.792969 230.617188 C 57.792969 235.769531 61.789062 239.914062 66.746094 239.914062 L 131.066406 239.914062 C 136.027344 239.914062 140.019531 235.769531 140.019531 230.617188 L 140.019531 69.480469 C 140.019531 64.328125 136.027344 60.183594 131.066406 60.183594 Z M 66.746094 60.183594 "/>
<path style=" stroke:none;fill-rule:evenodd;fill:rgb(19.215687%,20%,56.470591%);fill-opacity:1;" d="M 67.769531 67.589844 C 66.085938 67.589844 64.730469 68.984375 64.730469 70.71875 L 64.730469 229.378906 C 64.730469 231.113281 66.085938 232.507812 67.769531 232.507812 L 130.273438 232.507812 C 131.960938 232.507812 133.316406 231.113281 133.316406 229.378906 L 133.316406 70.71875 C 133.316406 68.984375 131.960938 67.589844 130.273438 67.589844 Z M 67.769531 67.589844 "/>
<path style="fill:none;stroke-width:1.64089;stroke-linecap:butt;stroke-linejoin:miter;stroke:rgb(9.019608%,2.352941%,47.843137%);stroke-opacity:1;stroke-miterlimit:10;" d="M 49.035028 46.90701 C 48.643064 46.90701 48.324363 47.219793 48.324363 47.605559 L 48.324363 219.299047 C 48.324363 219.688288 48.643064 220.001071 49.035028 220.001071 L 138.146597 220.001071 C 138.542225 220.001071 138.857262 219.688288 138.857262 219.299047 L 138.857262 47.605559 C 138.857262 47.219793 138.542225 46.90701 138.146597 46.90701 Z M 49.035028 46.90701 " transform="matrix(1.066342,0,0,1.123982,0.200155,0)"/>
<path style="fill:none;stroke-width:2.06341;stroke-linecap:butt;stroke-linejoin:round;stroke:rgb(9.019608%,2.352941%,47.843137%);stroke-opacity:1;stroke-miterlimit:10;" d="M 63.328925 53.364239 C 58.661979 53.364239 54.903512 57.062028 54.903512 61.652986 L 54.903512 205.255095 C 54.903512 209.846053 58.661979 213.543842 63.328925 213.543842 L 123.8527 213.543842 C 128.519646 213.543842 132.278113 209.846053 132.278113 205.255095 L 132.278113 61.652986 C 132.278113 57.062028 128.519646 53.364239 123.8527 53.364239 Z M 63.328925 53.364239 " transform="matrix(1.066342,0,0,1.123982,0.200155,0)"/>
<path style="fill:none;stroke-width:1.79684;stroke-linecap:butt;stroke-linejoin:round;stroke:rgb(9.019608%,2.352941%,47.843137%);stroke-opacity:1;stroke-miterlimit:10;" d="M 64.449872 59.963959 C 62.882012 59.963959 61.6182 61.204664 61.6182 62.751202 L 61.6182 204.149928 C 61.6182 205.696466 62.882012 206.937172 64.449872 206.937172 L 122.72809 206.937172 C 124.299613 206.937172 125.563425 205.696466 125.563425 204.149928 L 125.563425 62.751202 C 125.563425 61.204664 124.299613 59.963959 122.72809 59.963959 Z M 64.449872 59.963959 " transform="matrix(1.066342,0,0,1.123982,0.200155,0)"/>
<path style=" stroke:none;fill-rule:evenodd;fill:rgb(9.019608%,2.352941%,47.843137%);fill-opacity:1;" d="M 20.359375 21.160156 L 27.515625 21.160156 L 20.429688 28.5 Z M 20.359375 21.160156 "/>
<path style=" stroke:none;fill-rule:evenodd;fill:rgb(9.019608%,2.352941%,47.843137%);fill-opacity:1;" d="M 179.332031 21.253906 L 172.179688 21.253906 L 179.261719 28.59375 Z M 179.332031 21.253906 "/>
<path style=" stroke:none;fill-rule:evenodd;fill:rgb(9.019608%,2.352941%,47.843137%);fill-opacity:1;" d="M 179.460938 279.167969 L 172.308594 279.167969 L 179.390625 271.832031 Z M 179.460938 279.167969 "/>
<path style=" stroke:none;fill-rule:evenodd;fill:rgb(9.019608%,2.352941%,47.843137%);fill-opacity:1;" d="M 20.355469 279.132812 L 27.507812 279.132812 L 20.425781 271.792969 Z M 20.355469 279.132812 "/>
<path style="fill:none;stroke-width:2.6754;stroke-linecap:butt;stroke-linejoin:miter;stroke:rgb(9.019608%,2.352941%,47.843137%);stroke-opacity:1;stroke-miterlimit:10;" d="M 18.779362 17.166458 C 17.966126 17.166458 17.310409 17.812876 17.310409 18.615686 L 17.310409 248.379059 C 17.310409 249.181868 17.966126 249.828286 18.779362 249.828286 L 168.213228 249.828286 C 169.030126 249.828286 169.685843 249.181868 169.685843 248.379059 L 169.685843 18.615686 C 169.685843 17.812876 169.030126 17.166458 168.213228 17.166458 Z M 18.779362 17.166458 " transform="matrix(1.066342,0,0,1.123982,0.29899,-0.048704)"/>
<path style="fill:none;stroke-width:0.863326;stroke-linecap:butt;stroke-linejoin:miter;stroke:rgb(9.019608%,2.352941%,47.843137%);stroke-opacity:1;stroke-miterlimit:10;" d="M 18.907575 18.827683 L 25.614937 18.827683 L 18.96985 25.357895 Z M 18.907575 18.827683 " transform="matrix(1.066342,0,0,1.123982,0.29899,-0.048704)"/>
<path style="fill:none;stroke-width:0.863326;stroke-linecap:butt;stroke-linejoin:miter;stroke:rgb(9.019608%,2.352941%,47.843137%);stroke-opacity:1;stroke-miterlimit:10;" d="M 168.114321 18.827683 L 161.399632 18.827683 L 168.052046 25.357895 Z M 168.114321 18.827683 " transform="matrix(1.066342,0,0,1.123982,0.29899,-0.048704)"/>
<path style="fill:none;stroke-width:0.863326;stroke-linecap:butt;stroke-linejoin:miter;stroke:rgb(9.019608%,2.352941%,47.843137%);stroke-opacity:1;stroke-miterlimit:10;" d="M 168.106994 248.375583 L 161.399632 248.375583 L 168.044719 241.848847 Z M 168.106994 248.375583 " transform="matrix(1.066342,0,0,1.123982,0.29899,-0.048704)"/>
<path style="fill:none;stroke-width:0.863326;stroke-linecap:butt;stroke-linejoin:miter;stroke:rgb(9.019608%,2.352941%,47.843137%);stroke-opacity:1;stroke-miterlimit:10;" d="M 18.900248 248.34083 L 25.60761 248.34083 L 18.966186 241.814093 Z M 18.900248 248.34083 " transform="matrix(1.066342,0,0,1.123982,0.29899,-0.048704)"/>
<path style="fill-rule:evenodd;fill:rgb(19.215687%,20%,56.470591%);fill-opacity:1;stroke-width:1.31422;stroke-linecap:round;stroke-linejoin:round;stroke:rgb(9.019608%,2.352941%,47.843137%);stroke-opacity:1;stroke-miterlimit:10;" d="M 21.47645 142.836179 L 21.47645 149.092594 L 44.056558 137.393861 L 44.056558 130.985021 Z M 21.47645 142.836179 " transform="matrix(1.066342,0,0,1.127593,0.532346,-1.084484)"/>
<path style="fill-rule:evenodd;fill:rgb(19.215687%,20%,56.470591%);fill-opacity:1;stroke-width:1.31422;stroke-linecap:round;stroke-linejoin:round;stroke:rgb(9.019608%,2.352941%,47.843137%);stroke-opacity:1;stroke-miterlimit:10;" d="M 21.59001 154.666553 L 21.59001 160.922967 L 44.170118 149.224235 L 44.170118 142.815394 Z M 21.59001 154.666553 " transform="matrix(1.066342,0,0,1.127593,0.532346,-1.084484)"/>
<path style="fill-rule:evenodd;fill:rgb(19.215687%,20%,56.470591%);fill-opacity:1;stroke-width:1.31422;stroke-linecap:round;stroke-linejoin:round;stroke:rgb(9.019608%,2.352941%,47.843137%);stroke-opacity:1;stroke-miterlimit:10;" d="M 21.641295 130.846451 L 21.641295 137.099401 L 44.221403 125.400669 L 44.221403 118.995292 Z M 21.641295 130.846451 " transform="matrix(1.066342,0,0,1.127593,0.532346,-1.084484)"/>
<path style="fill-rule:evenodd;fill:rgb(100%,100%,100%);fill-opacity:1;stroke-width:1.31422;stroke-linecap:round;stroke-linejoin:round;stroke:rgb(9.019608%,2.352941%,47.843137%);stroke-opacity:1;stroke-miterlimit:10;" d="M 21.531398 137.359219 L 21.531398 131.102805 L 44.115169 142.801537 L 44.115169 149.210378 Z M 21.531398 137.359219 " transform="matrix(1.066342,0,0,1.127593,0.532346,-1.084484)"/>
<path style="fill-rule:evenodd;fill:rgb(19.215687%,20%,56.470591%);fill-opacity:1;stroke-width:1.31422;stroke-linecap:round;stroke-linejoin:round;stroke:rgb(9.019608%,2.352941%,47.843137%);stroke-opacity:1;stroke-miterlimit:10;" d="M 21.524072 119.016078 L 21.524072 125.272492 L 44.107843 113.57376 L 44.107843 107.164919 Z M 21.524072 119.016078 " transform="matrix(1.066342,0,0,1.127593,0.532346,-1.084484)"/>
<path style="fill-rule:evenodd;fill:rgb(100%,100%,100%);fill-opacity:1;stroke-width:1.31422;stroke-linecap:round;stroke-linejoin:round;stroke:rgb(9.019608%,2.352941%,47.843137%);stroke-opacity:1;stroke-miterlimit:10;" d="M 21.414175 125.300206 L 21.414175 119.047256 L 43.994283 130.745988 L 43.994283 137.151365 Z M 21.414175 125.300206 " transform="matrix(1.066342,0,0,1.127593,0.532346,-1.084484)"/>
<path style="fill-rule:evenodd;fill:rgb(19.215687%,20%,56.470591%);fill-opacity:1;stroke-width:1.31422;stroke-linecap:round;stroke-linejoin:round;stroke:rgb(9.019608%,2.352941%,47.843137%);stroke-opacity:1;stroke-miterlimit:10;" d="M 21.619315 166.604318 L 21.619315 172.857268 L 44.203087 161.161999 L 44.203087 154.753159 Z M 21.619315 166.604318 " transform="matrix(1.066342,0,0,1.127593,0.532346,-1.084484)"/>
<path style="fill-rule:evenodd;fill:rgb(100%,100%,100%);fill-opacity:1;stroke-width:1.31422;stroke-linecap:round;stroke-linejoin:round;stroke:rgb(9.019608%,2.352941%,47.843137%);stroke-opacity:1;stroke-miterlimit:10;" d="M 21.36289 149.123772 L 21.36289 142.867358 L 43.942998 154.56609 L 43.942998 160.974931 Z M 21.36289 149.123772 " transform="matrix(1.066342,0,0,1.127593,0.532346,-1.084484)"/>
<path style="fill-rule:evenodd;fill:rgb(19.215687%,20%,56.470591%);fill-opacity:1;stroke-width:1.31422;stroke-linecap:round;stroke-linejoin:round;stroke:rgb(9.019608%,2.352941%,47.843137%);stroke-opacity:1;stroke-miterlimit:10;" d="M 21.392195 83.230497 L 21.392195 89.486911 L 43.972304 77.788179 L 43.972304 71.379339 Z M 21.392195 83.230497 " transform="matrix(1.066342,0,0,1.127593,0.532346,-1.084484)"/>
<path style="fill-rule:evenodd;fill:rgb(19.215687%,20%,56.470591%);fill-opacity:1;stroke-width:1.31422;stroke-linecap:round;stroke-linejoin:round;stroke:rgb(9.019608%,2.352941%,47.843137%);stroke-opacity:1;stroke-miterlimit:10;" d="M 21.505755 95.060871 L 21.505755 101.317285 L 44.089527 89.618553 L 44.089527 83.209712 Z M 21.505755 95.060871 " transform="matrix(1.066342,0,0,1.127593,0.532346,-1.084484)"/>
<path style="fill-rule:evenodd;fill:rgb(19.215687%,20%,56.470591%);fill-opacity:1;stroke-width:1.31422;stroke-linecap:round;stroke-linejoin:round;stroke:rgb(9.019608%,2.352941%,47.843137%);stroke-opacity:1;stroke-miterlimit:10;" d="M 21.557041 71.237305 L 21.557041 77.493719 L 44.137149 65.794987 L 44.137149 59.386146 Z M 21.557041 71.237305 " transform="matrix(1.066342,0,0,1.127593,0.532346,-1.084484)"/>
<path style="fill-rule:evenodd;fill:rgb(100%,100%,100%);fill-opacity:1;stroke-width:1.31422;stroke-linecap:round;stroke-linejoin:round;stroke:rgb(9.019608%,2.352941%,47.843137%);stroke-opacity:1;stroke-miterlimit:10;" d="M 21.447144 77.753537 L 21.447144 71.497123 L 44.030915 83.195855 L 44.030915 89.604696 Z M 21.447144 77.753537 " transform="matrix(1.066342,0,0,1.127593,0.532346,-1.084484)"/>
<path style="fill-rule:evenodd;fill:rgb(19.215687%,20%,56.470591%);fill-opacity:1;stroke-width:1.31422;stroke-linecap:round;stroke-linejoin:round;stroke:rgb(9.019608%,2.352941%,47.843137%);stroke-opacity:1;stroke-miterlimit:10;" d="M 21.443481 59.410396 L 21.443481 65.663346 L 44.023589 53.964613 L 44.023589 47.559237 Z M 21.443481 59.410396 " transform="matrix(1.066342,0,0,1.127593,0.532346,-1.084484)"/>
<path style="fill-rule:evenodd;fill:rgb(100%,100%,100%);fill-opacity:1;stroke-width:1.31422;stroke-linecap:round;stroke-linejoin:round;stroke:rgb(9.019608%,2.352941%,47.843137%);stroke-opacity:1;stroke-miterlimit:10;" d="M 21.329921 65.694524 L 21.329921 59.441574 L 43.910029 71.136842 L 43.910029 77.545682 Z M 21.329921 65.694524 " transform="matrix(1.066342,0,0,1.127593,0.532346,-1.084484)"/>
<path style="fill-rule:evenodd;fill:rgb(100%,100%,100%);fill-opacity:1;stroke-width:1.31422;stroke-linecap:round;stroke-linejoin:round;stroke:rgb(9.019608%,2.352941%,47.843137%);stroke-opacity:1;stroke-miterlimit:10;" d="M 21.498429 53.929971 L 21.498429 47.677021 L 44.0822 59.372289 L 44.0822 65.78113 Z M 21.498429 53.929971 " transform="matrix(1.066342,0,0,1.127593,0.532346,-1.084484)"/>
<path style="fill-rule:evenodd;fill:rgb(19.215687%,20%,56.470591%);fill-opacity:1;stroke-width:1.31422;stroke-linecap:round;stroke-linejoin:round;stroke:rgb(9.019608%,2.352941%,47.843137%);stroke-opacity:1;stroke-miterlimit:10;" d="M 21.538724 106.998635 L 21.538724 113.251585 L 44.118832 101.552853 L 44.118832 95.147477 Z M 21.538724 106.998635 " transform="matrix(1.066342,0,0,1.127593,0.532346,-1.084484)"/>
<path style="fill-rule:evenodd;fill:rgb(100%,100%,100%);fill-opacity:1;stroke-width:1.31422;stroke-linecap:round;stroke-linejoin:round;stroke:rgb(9.019608%,2.352941%,47.843137%);stroke-opacity:1;stroke-miterlimit:10;" d="M 21.278636 89.51809 L 21.278636 83.261675 L 43.862407 94.960408 L 43.862407 101.369248 Z M 21.278636 89.51809 " transform="matrix(1.066342,0,0,1.127593,0.532346,-1.084484)"/>
<path style="fill-rule:evenodd;fill:rgb(100%,100%,100%);fill-opacity:1;stroke-width:1.31422;stroke-linecap:round;stroke-linejoin:round;stroke:rgb(9.019608%,2.352941%,47.843137%);stroke-opacity:1;stroke-miterlimit:10;" d="M 21.582683 113.535653 L 21.582683 107.282703 L 44.162791 118.981435 L 44.162791 125.386812 Z M 21.582683 113.535653 " transform="matrix(1.066342,0,0,1.127593,0.532346,-1.084484)"/>
<path style="fill-rule:evenodd;fill:rgb(100%,100%,100%);fill-opacity:1;stroke-width:1.31422;stroke-linecap:round;stroke-linejoin:round;stroke:rgb(9.019608%,2.352941%,47.843137%);stroke-opacity:1;stroke-miterlimit:10;" d="M 21.311605 101.45239 L 21.311605 95.19944 L 43.891713 106.898173 L 43.891713 113.307013 Z M 21.311605 101.45239 " transform="matrix(1.066342,0,0,1.127593,0.532346,-1.084484)"/>
<path style="fill-rule:evenodd;fill:rgb(19.215687%,20%,56.470591%);fill-opacity:1;stroke-width:1.31422;stroke-linecap:round;stroke-linejoin:round;stroke:rgb(9.019608%,2.352941%,47.843137%);stroke-opacity:1;stroke-miterlimit:10;" d="M 21.47645 202.279042 L 21.47645 208.535457 L 44.056558 196.836724 L 44.056558 190.427884 Z M 21.47645 202.279042 " transform="matrix(1.066342,0,0,1.127593,0.532346,-1.084484)"/>
<path style="fill-rule:evenodd;fill:rgb(19.215687%,20%,56.470591%);fill-opacity:1;stroke-width:1.31422;stroke-linecap:round;stroke-linejoin:round;stroke:rgb(9.019608%,2.352941%,47.843137%);stroke-opacity:1;stroke-miterlimit:10;" d="M 21.59001 214.109416 L 21.59001 220.36583 L 44.170118 208.667098 L 44.170118 202.258257 Z M 21.59001 214.109416 " transform="matrix(1.066342,0,0,1.127593,0.532346,-1.084484)"/>
<path style="fill-rule:evenodd;fill:rgb(100%,100%,100%);fill-opacity:1;stroke-width:1.31422;stroke-linecap:round;stroke-linejoin:round;stroke:rgb(9.019608%,2.352941%,47.843137%);stroke-opacity:1;stroke-miterlimit:10;" d="M 21.36289 208.566635 L 21.36289 202.310221 L 43.942998 214.008953 L 43.942998 220.417793 Z M 21.36289 208.566635 " transform="matrix(1.066342,0,0,1.127593,0.532346,-1.084484)"/>
<path style=" stroke:none;fill-rule:evenodd;fill:rgb(19.215687%,20%,56.470591%);fill-opacity:1;" d="M 23.609375 213.480469 L 23.609375 220.535156 L 47.6875 207.34375 L 47.6875 200.117188 Z M 23.609375 213.480469 "/>
<path style="fill-rule:evenodd;fill:rgb(19.215687%,20%,56.470591%);fill-opacity:1;stroke-width:1.31422;stroke-linecap:round;stroke-linejoin:round;stroke:rgb(9.019608%,2.352941%,47.843137%);stroke-opacity:1;stroke-miterlimit:10;" d="M 21.524072 178.458941 L 21.524072 184.715355 L 44.107843 173.013158 L 44.107843 166.607782 Z M 21.524072 178.458941 " transform="matrix(1.066342,0,0,1.127593,0.532346,-1.084484)"/>
<path style="fill-rule:evenodd;fill:rgb(100%,100%,100%);fill-opacity:1;stroke-width:1.31422;stroke-linecap:round;stroke-linejoin:round;stroke:rgb(9.019608%,2.352941%,47.843137%);stroke-opacity:1;stroke-miterlimit:10;" d="M 21.392195 161.058072 L 21.392195 154.805122 L 43.975967 166.503855 L 43.975967 172.912695 Z M 21.392195 161.058072 " transform="matrix(1.066342,0,0,1.127593,0.532346,-1.084484)"/>
<path style="fill:none;stroke-width:1.31422;stroke-linecap:round;stroke-linejoin:round;stroke:rgb(9.019608%,2.352941%,47.843137%);stroke-opacity:1;stroke-miterlimit:10;" d="M 21.641295 190.28585 L 21.641295 196.542264 L 44.221403 184.843532 L 44.221403 178.434691 Z M 21.641295 190.28585 " transform="matrix(1.066342,0,0,1.127593,0.532346,-1.084484)"/>
<path style="fill-rule:evenodd;fill:rgb(100%,100%,100%);fill-opacity:1;stroke-width:1.31422;stroke-linecap:round;stroke-linejoin:round;stroke:rgb(9.019608%,2.352941%,47.843137%);stroke-opacity:1;stroke-miterlimit:10;" d="M 21.531398 196.802082 L 21.531398 190.545668 L 44.115169 202.2444 L 44.115169 208.653241 Z M 21.531398 196.802082 " transform="matrix(1.066342,0,0,1.127593,0.532346,-1.084484)"/>
<path style="fill-rule:evenodd;fill:rgb(100%,100%,100%);fill-opacity:1;stroke-width:1.31422;stroke-linecap:round;stroke-linejoin:round;stroke:rgb(9.019608%,2.352941%,47.843137%);stroke-opacity:1;stroke-miterlimit:10;" d="M 21.414175 184.743069 L 21.414175 178.490119 L 43.994283 190.188851 L 43.994283 196.594228 Z M 21.414175 184.743069 " transform="matrix(1.066342,0,0,1.127593,0.532346,-1.084484)"/>
<path style="fill-rule:evenodd;fill:rgb(100%,100%,100%);fill-opacity:1;stroke-width:1.31422;stroke-linecap:round;stroke-linejoin:round;stroke:rgb(9.019608%,2.352941%,47.843137%);stroke-opacity:1;stroke-miterlimit:10;" d="M 21.582683 172.978516 L 21.582683 166.722102 L 44.162791 178.420834 L 44.162791 184.829675 Z M 21.582683 172.978516 " transform="matrix(1.066342,0,0,1.127593,0.532346,-1.084484)"/>
<path style="fill:none;stroke-width:0.5;stroke-linecap:butt;stroke-linejoin:miter;stroke:rgb(0%,0%,0%);stroke-opacity:1;stroke-miterlimit:4;" d="M 177.398034 249.830134 C 177.398034 253.680839 174.291621 256.836471 170.481869 256.836471 L 16.586197 256.836471 C 12.787434 256.836471 9.677358 253.680839 9.677358 249.830134 L 9.677358 16.876376 C 9.677358 13.022195 12.787434 9.870038 16.586197 9.870038 L 170.481869 9.870038 C 174.291621 9.870038 177.398034 13.022195 177.398034 16.876376 Z M 177.398034 249.830134 " transform="matrix(1.066342,0,0,1.123982,0.200155,0)"/>
<path style="fill-rule:evenodd;fill:rgb(19.215687%,20%,56.470591%);fill-opacity:1;stroke-width:1.31422;stroke-linecap:round;stroke-linejoin:round;stroke:rgb(9.019608%,2.352941%,47.843137%);stroke-opacity:1;stroke-miterlimit:10;" d="M 21.475099 142.836179 L 21.475099 149.092594 L 44.055207 137.393861 L 44.055207 130.985021 Z M 21.475099 142.836179 " transform="matrix(1.066342,0,0,1.127593,129.440036,-1.084484)"/>
<path style="fill-rule:evenodd;fill:rgb(19.215687%,20%,56.470591%);fill-opacity:1;stroke-width:1.31422;stroke-linecap:round;stroke-linejoin:round;stroke:rgb(9.019608%,2.352941%,47.843137%);stroke-opacity:1;stroke-miterlimit:10;" d="M 21.588659 154.666553 L 21.588659 160.922967 L 44.17243 149.224235 L 44.17243 142.815394 Z M 21.588659 154.666553 " transform="matrix(1.066342,0,0,1.127593,129.440036,-1.084484)"/>
<path style="fill-rule:evenodd;fill:rgb(19.215687%,20%,56.470591%);fill-opacity:1;stroke-width:1.31422;stroke-linecap:round;stroke-linejoin:round;stroke:rgb(9.019608%,2.352941%,47.843137%);stroke-opacity:1;stroke-miterlimit:10;" d="M 21.639944 130.846451 L 21.639944 137.099401 L 44.220052 125.400669 L 44.220052 118.995292 Z M 21.639944 130.846451 " transform="matrix(1.066342,0,0,1.127593,129.440036,-1.084484)"/>
<path style="fill-rule:evenodd;fill:rgb(100%,100%,100%);fill-opacity:1;stroke-width:1.31422;stroke-linecap:round;stroke-linejoin:round;stroke:rgb(9.019608%,2.352941%,47.843137%);stroke-opacity:1;stroke-miterlimit:10;" d="M 21.533711 137.359219 L 21.533711 131.102805 L 44.113819 142.801537 L 44.113819 149.210378 Z M 21.533711 137.359219 " transform="matrix(1.066342,0,0,1.127593,129.440036,-1.084484)"/>
<path style="fill-rule:evenodd;fill:rgb(19.215687%,20%,56.470591%);fill-opacity:1;stroke-width:1.31422;stroke-linecap:round;stroke-linejoin:round;stroke:rgb(9.019608%,2.352941%,47.843137%);stroke-opacity:1;stroke-miterlimit:10;" d="M 21.526384 119.016078 L 21.526384 125.272492 L 44.106492 113.57376 L 44.106492 107.164919 Z M 21.526384 119.016078 " transform="matrix(1.066342,0,0,1.127593,129.440036,-1.084484)"/>
<path style="fill-rule:evenodd;fill:rgb(100%,100%,100%);fill-opacity:1;stroke-width:1.31422;stroke-linecap:round;stroke-linejoin:round;stroke:rgb(9.019608%,2.352941%,47.843137%);stroke-opacity:1;stroke-miterlimit:10;" d="M 21.412824 125.300206 L 21.412824 119.047256 L 43.992933 130.745988 L 43.992933 137.151365 Z M 21.412824 125.300206 " transform="matrix(1.066342,0,0,1.127593,129.440036,-1.084484)"/>
<path style="fill-rule:evenodd;fill:rgb(19.215687%,20%,56.470591%);fill-opacity:1;stroke-width:1.31422;stroke-linecap:round;stroke-linejoin:round;stroke:rgb(9.019608%,2.352941%,47.843137%);stroke-opacity:1;stroke-miterlimit:10;" d="M 21.621628 166.604318 L 21.621628 172.857268 L 44.201736 161.161999 L 44.201736 154.753159 Z M 21.621628 166.604318 " transform="matrix(1.066342,0,0,1.127593,129.440036,-1.084484)"/>
<path style="fill-rule:evenodd;fill:rgb(100%,100%,100%);fill-opacity:1;stroke-width:1.31422;stroke-linecap:round;stroke-linejoin:round;stroke:rgb(9.019608%,2.352941%,47.843137%);stroke-opacity:1;stroke-miterlimit:10;" d="M 21.361539 149.123772 L 21.361539 142.867358 L 43.945311 154.56609 L 43.945311 160.974931 Z M 21.361539 149.123772 " transform="matrix(1.066342,0,0,1.127593,129.440036,-1.084484)"/>
<path style="fill-rule:evenodd;fill:rgb(19.215687%,20%,56.470591%);fill-opacity:1;stroke-width:1.31422;stroke-linecap:round;stroke-linejoin:round;stroke:rgb(9.019608%,2.352941%,47.843137%);stroke-opacity:1;stroke-miterlimit:10;" d="M 21.390845 83.230497 L 21.390845 89.486911 L 43.974616 77.788179 L 43.974616 71.379339 Z M 21.390845 83.230497 " transform="matrix(1.066342,0,0,1.127593,129.440036,-1.084484)"/>
<path style="fill-rule:evenodd;fill:rgb(19.215687%,20%,56.470591%);fill-opacity:1;stroke-width:1.31422;stroke-linecap:round;stroke-linejoin:round;stroke:rgb(9.019608%,2.352941%,47.843137%);stroke-opacity:1;stroke-miterlimit:10;" d="M 21.508068 95.060871 L 21.508068 101.317285 L 44.088176 89.618553 L 44.088176 83.209712 Z M 21.508068 95.060871 " transform="matrix(1.066342,0,0,1.127593,129.440036,-1.084484)"/>
<path style="fill-rule:evenodd;fill:rgb(19.215687%,20%,56.470591%);fill-opacity:1;stroke-width:1.31422;stroke-linecap:round;stroke-linejoin:round;stroke:rgb(9.019608%,2.352941%,47.843137%);stroke-opacity:1;stroke-miterlimit:10;" d="M 21.559353 71.237305 L 21.559353 77.493719 L 44.139461 65.794987 L 44.139461 59.386146 Z M 21.559353 71.237305 " transform="matrix(1.066342,0,0,1.127593,129.440036,-1.084484)"/>
<path style="fill-rule:evenodd;fill:rgb(100%,100%,100%);fill-opacity:1;stroke-width:1.31422;stroke-linecap:round;stroke-linejoin:round;stroke:rgb(9.019608%,2.352941%,47.843137%);stroke-opacity:1;stroke-miterlimit:10;" d="M 21.449457 77.753537 L 21.449457 71.497123 L 44.029565 83.195855 L 44.029565 89.604696 Z M 21.449457 77.753537 " transform="matrix(1.066342,0,0,1.127593,129.440036,-1.084484)"/>
<path style="fill-rule:evenodd;fill:rgb(19.215687%,20%,56.470591%);fill-opacity:1;stroke-width:1.31422;stroke-linecap:round;stroke-linejoin:round;stroke:rgb(9.019608%,2.352941%,47.843137%);stroke-opacity:1;stroke-miterlimit:10;" d="M 21.44213 59.410396 L 21.44213 65.663346 L 44.022238 53.964613 L 44.022238 47.559237 Z M 21.44213 59.410396 " transform="matrix(1.066342,0,0,1.127593,129.440036,-1.084484)"/>
<path style="fill-rule:evenodd;fill:rgb(100%,100%,100%);fill-opacity:1;stroke-width:1.31422;stroke-linecap:round;stroke-linejoin:round;stroke:rgb(9.019608%,2.352941%,47.843137%);stroke-opacity:1;stroke-miterlimit:10;" d="M 21.32857 65.694524 L 21.32857 59.441574 L 43.912342 71.136842 L 43.912342 77.545682 Z M 21.32857 65.694524 " transform="matrix(1.066342,0,0,1.127593,129.440036,-1.084484)"/>
<path style="fill-rule:evenodd;fill:rgb(100%,100%,100%);fill-opacity:1;stroke-width:1.31422;stroke-linecap:round;stroke-linejoin:round;stroke:rgb(9.019608%,2.352941%,47.843137%);stroke-opacity:1;stroke-miterlimit:10;" d="M 21.500742 53.929971 L 21.500742 47.677021 L 44.08085 59.372289 L 44.08085 65.78113 Z M 21.500742 53.929971 " transform="matrix(1.066342,0,0,1.127593,129.440036,-1.084484)"/>
<path style="fill-rule:evenodd;fill:rgb(19.215687%,20%,56.470591%);fill-opacity:1;stroke-width:1.31422;stroke-linecap:round;stroke-linejoin:round;stroke:rgb(9.019608%,2.352941%,47.843137%);stroke-opacity:1;stroke-miterlimit:10;" d="M 21.537374 106.998635 L 21.537374 113.251585 L 44.121145 101.552853 L 44.121145 95.147477 Z M 21.537374 106.998635 " transform="matrix(1.066342,0,0,1.127593,129.440036,-1.084484)"/>
<path style="fill-rule:evenodd;fill:rgb(100%,100%,100%);fill-opacity:1;stroke-width:1.31422;stroke-linecap:round;stroke-linejoin:round;stroke:rgb(9.019608%,2.352941%,47.843137%);stroke-opacity:1;stroke-miterlimit:10;" d="M 21.280948 89.51809 L 21.280948 83.261675 L 43.861056 94.960408 L 43.861056 101.369248 Z M 21.280948 89.51809 " transform="matrix(1.066342,0,0,1.127593,129.440036,-1.084484)"/>
<path style="fill-rule:evenodd;fill:rgb(100%,100%,100%);fill-opacity:1;stroke-width:1.31422;stroke-linecap:round;stroke-linejoin:round;stroke:rgb(9.019608%,2.352941%,47.843137%);stroke-opacity:1;stroke-miterlimit:10;" d="M 21.581333 113.535653 L 21.581333 107.282703 L 44.165104 118.981435 L 44.165104 125.386812 Z M 21.581333 113.535653 " transform="matrix(1.066342,0,0,1.127593,129.440036,-1.084484)"/>
<path style="fill-rule:evenodd;fill:rgb(100%,100%,100%);fill-opacity:1;stroke-width:1.31422;stroke-linecap:round;stroke-linejoin:round;stroke:rgb(9.019608%,2.352941%,47.843137%);stroke-opacity:1;stroke-miterlimit:10;" d="M 21.310254 101.45239 L 21.310254 95.19944 L 43.890362 106.898173 L 43.890362 113.307013 Z M 21.310254 101.45239 " transform="matrix(1.066342,0,0,1.127593,129.440036,-1.084484)"/>
<path style="fill-rule:evenodd;fill:rgb(19.215687%,20%,56.470591%);fill-opacity:1;stroke-width:1.31422;stroke-linecap:round;stroke-linejoin:round;stroke:rgb(9.019608%,2.352941%,47.843137%);stroke-opacity:1;stroke-miterlimit:10;" d="M 21.475099 202.279042 L 21.475099 208.535457 L 44.055207 196.836724 L 44.055207 190.427884 Z M 21.475099 202.279042 " transform="matrix(1.066342,0,0,1.127593,129.440036,-1.084484)"/>
<path style="fill-rule:evenodd;fill:rgb(19.215687%,20%,56.470591%);fill-opacity:1;stroke-width:1.31422;stroke-linecap:round;stroke-linejoin:round;stroke:rgb(9.019608%,2.352941%,47.843137%);stroke-opacity:1;stroke-miterlimit:10;" d="M 21.588659 214.109416 L 21.588659 220.36583 L 44.17243 208.667098 L 44.17243 202.258257 Z M 21.588659 214.109416 " transform="matrix(1.066342,0,0,1.127593,129.440036,-1.084484)"/>
<path style="fill-rule:evenodd;fill:rgb(100%,100%,100%);fill-opacity:1;stroke-width:1.31422;stroke-linecap:round;stroke-linejoin:round;stroke:rgb(9.019608%,2.352941%,47.843137%);stroke-opacity:1;stroke-miterlimit:10;" d="M 21.361539 208.566635 L 21.361539 202.310221 L 43.945311 214.008953 L 43.945311 220.417793 Z M 21.361539 208.566635 " transform="matrix(1.066342,0,0,1.127593,129.440036,-1.084484)"/>
<path style=" stroke:none;fill-rule:evenodd;fill:rgb(19.215687%,20%,56.470591%);fill-opacity:1;" d="M 152.515625 213.480469 L 152.515625 220.535156 L 176.59375 207.34375 L 176.59375 200.117188 Z M 152.515625 213.480469 "/>
<path style="fill-rule:evenodd;fill:rgb(19.215687%,20%,56.470591%);fill-opacity:1;stroke-width:1.31422;stroke-linecap:round;stroke-linejoin:round;stroke:rgb(9.019608%,2.352941%,47.843137%);stroke-opacity:1;stroke-miterlimit:10;" d="M 21.526384 178.458941 L 21.526384 184.715355 L 44.106492 173.013158 L 44.106492 166.607782 Z M 21.526384 178.458941 " transform="matrix(1.066342,0,0,1.127593,129.440036,-1.084484)"/>
<path style="fill-rule:evenodd;fill:rgb(100%,100%,100%);fill-opacity:1;stroke-width:1.31422;stroke-linecap:round;stroke-linejoin:round;stroke:rgb(9.019608%,2.352941%,47.843137%);stroke-opacity:1;stroke-miterlimit:10;" d="M 21.394508 161.058072 L 21.394508 154.805122 L 43.974616 166.503855 L 43.974616 172.912695 Z M 21.394508 161.058072 " transform="matrix(1.066342,0,0,1.127593,129.440036,-1.084484)"/>
<path style="fill:none;stroke-width:1.31422;stroke-linecap:round;stroke-linejoin:round;stroke:rgb(9.019608%,2.352941%,47.843137%);stroke-opacity:1;stroke-miterlimit:10;" d="M 21.639944 190.28585 L 21.639944 196.542264 L 44.220052 184.843532 L 44.220052 178.434691 Z M 21.639944 190.28585 " transform="matrix(1.066342,0,0,1.127593,129.440036,-1.084484)"/>
<path style="fill-rule:evenodd;fill:rgb(100%,100%,100%);fill-opacity:1;stroke-width:1.31422;stroke-linecap:round;stroke-linejoin:round;stroke:rgb(9.019608%,2.352941%,47.843137%);stroke-opacity:1;stroke-miterlimit:10;" d="M 21.533711 196.802082 L 21.533711 190.545668 L 44.113819 202.2444 L 44.113819 208.653241 Z M 21.533711 196.802082 " transform="matrix(1.066342,0,0,1.127593,129.440036,-1.084484)"/>
<path style="fill-rule:evenodd;fill:rgb(100%,100%,100%);fill-opacity:1;stroke-width:1.31422;stroke-linecap:round;stroke-linejoin:round;stroke:rgb(9.019608%,2.352941%,47.843137%);stroke-opacity:1;stroke-miterlimit:10;" d="M 21.412824 184.743069 L 21.412824 178.490119 L 43.992933 190.188851 L 43.992933 196.594228 Z M 21.412824 184.743069 " transform="matrix(1.066342,0,0,1.127593,129.440036,-1.084484)"/>
<path style="fill-rule:evenodd;fill:rgb(100%,100%,100%);fill-opacity:1;stroke-width:1.31422;stroke-linecap:round;stroke-linejoin:round;stroke:rgb(9.019608%,2.352941%,47.843137%);stroke-opacity:1;stroke-miterlimit:10;" d="M 21.581333 172.978516 L 21.581333 166.722102 L 44.165104 178.420834 L 44.165104 184.829675 Z M 21.581333 172.978516 " transform="matrix(1.066342,0,0,1.127593,129.440036,-1.084484)"/>
<path style="fill-rule:evenodd;fill:rgb(19.215687%,20%,56.470591%);fill-opacity:1;stroke-width:1.31633;stroke-linecap:round;stroke-linejoin:round;stroke:rgb(9.019608%,2.352941%,47.843137%);stroke-opacity:1;stroke-miterlimit:10;" d="M 62.743525 280.327418 L 56.468424 280.327418 L 68.205391 302.906868 L 74.634348 302.906868 Z M 62.743525 280.327418 " transform="matrix(1.066342,0,0,1.123982,42.695486,-64.016693)"/>
<path style="fill-rule:evenodd;fill:rgb(19.215687%,20%,56.470591%);fill-opacity:1;stroke-width:1.31633;stroke-linecap:round;stroke-linejoin:round;stroke:rgb(9.019608%,2.352941%,47.843137%);stroke-opacity:1;stroke-miterlimit:10;" d="M 50.878345 280.442105 L 44.599581 280.442105 L 56.336548 303.021555 L 62.765505 303.021555 Z M 50.878345 280.442105 " transform="matrix(1.066342,0,0,1.123982,42.695486,-64.016693)"/>
<path style="fill-rule:evenodd;fill:rgb(19.215687%,20%,56.470591%);fill-opacity:1;stroke-width:1.31633;stroke-linecap:round;stroke-linejoin:round;stroke:rgb(9.019608%,2.352941%,47.843137%);stroke-opacity:1;stroke-miterlimit:10;" d="M 74.773551 280.49076 L 68.498449 280.49076 L 80.235416 303.073686 L 86.664373 303.073686 Z M 74.773551 280.49076 " transform="matrix(1.066342,0,0,1.123982,42.695486,-64.016693)"/>
<path style="fill-rule:evenodd;fill:rgb(100%,100%,100%);fill-opacity:1;stroke-width:1.31633;stroke-linecap:round;stroke-linejoin:round;stroke:rgb(9.019608%,2.352941%,47.843137%);stroke-opacity:1;stroke-miterlimit:10;" d="M 68.242023 280.383024 L 74.517125 280.383024 L 62.780158 302.96595 L 56.351201 302.96595 Z M 68.242023 280.383024 " transform="matrix(1.066342,0,0,1.123982,42.695486,-64.016693)"/>
<path style="fill-rule:evenodd;fill:rgb(19.215687%,20%,56.470591%);fill-opacity:1;stroke-width:1.31633;stroke-linecap:round;stroke-linejoin:round;stroke:rgb(9.019608%,2.352941%,47.843137%);stroke-opacity:1;stroke-miterlimit:10;" d="M 86.642394 280.376073 L 80.367292 280.376073 L 92.100596 302.958999 L 98.533216 302.958999 Z M 86.642394 280.376073 " transform="matrix(1.066342,0,0,1.123982,42.695486,-64.016693)"/>
<path style="fill-rule:evenodd;fill:rgb(100%,100%,100%);fill-opacity:1;stroke-width:1.31633;stroke-linecap:round;stroke-linejoin:round;stroke:rgb(9.019608%,2.352941%,47.843137%);stroke-opacity:1;stroke-miterlimit:10;" d="M 80.337987 280.264861 L 86.613088 280.264861 L 74.876121 302.844312 L 68.447164 302.844312 Z M 80.337987 280.264861 " transform="matrix(1.066342,0,0,1.123982,42.695486,-64.016693)"/>
<path style="fill-rule:evenodd;fill:rgb(19.215687%,20%,56.470591%);fill-opacity:1;stroke-width:1.31633;stroke-linecap:round;stroke-linejoin:round;stroke:rgb(9.019608%,2.352941%,47.843137%);stroke-opacity:1;stroke-miterlimit:10;" d="M 38.899605 280.473383 L 32.628167 280.473383 L 44.361471 303.052834 L 50.790428 303.052834 Z M 38.899605 280.473383 " transform="matrix(1.066342,0,0,1.123982,42.695486,-64.016693)"/>
<path style="fill-rule:evenodd;fill:rgb(100%,100%,100%);fill-opacity:1;stroke-width:1.31633;stroke-linecap:round;stroke-linejoin:round;stroke:rgb(9.019608%,2.352941%,47.843137%);stroke-opacity:1;stroke-miterlimit:10;" d="M 56.439118 280.216206 L 62.71422 280.216206 L 50.977252 302.795657 L 44.548296 302.795657 Z M 56.439118 280.216206 " transform="matrix(1.066342,0,0,1.123982,42.695486,-64.016693)"/>
<path style="fill-rule:evenodd;fill:rgb(19.215687%,20%,56.470591%);fill-opacity:1;stroke-width:1.31633;stroke-linecap:round;stroke-linejoin:round;stroke:rgb(9.019608%,2.352941%,47.843137%);stroke-opacity:1;stroke-miterlimit:10;" d="M 110.676801 280.358696 L 104.398037 280.358696 L 116.135004 302.941622 L 122.563961 302.941622 Z M 110.676801 280.358696 " transform="matrix(1.066342,0,0,1.123982,42.695486,-64.016693)"/>
<path style="fill-rule:evenodd;fill:rgb(19.215687%,20%,56.470591%);fill-opacity:1;stroke-width:1.31633;stroke-linecap:round;stroke-linejoin:round;stroke:rgb(9.019608%,2.352941%,47.843137%);stroke-opacity:1;stroke-miterlimit:10;" d="M 98.698061 280.389974 L 92.42296 280.389974 L 104.159927 302.9729 L 110.588884 302.9729 Z M 98.698061 280.389974 " transform="matrix(1.066342,0,0,1.123982,42.695486,-64.016693)"/>
<path style="fill-rule:evenodd;fill:rgb(100%,100%,100%);fill-opacity:1;stroke-width:1.31633;stroke-linecap:round;stroke-linejoin:round;stroke:rgb(9.019608%,2.352941%,47.843137%);stroke-opacity:1;stroke-miterlimit:10;" d="M 116.237574 280.129322 L 122.512676 280.129322 L 110.775709 302.712248 L 104.346752 302.712248 Z M 116.237574 280.129322 " transform="matrix(1.066342,0,0,1.123982,42.695486,-64.016693)"/>
<path style="fill-rule:evenodd;fill:rgb(100%,100%,100%);fill-opacity:1;stroke-width:1.31633;stroke-linecap:round;stroke-linejoin:round;stroke:rgb(9.019608%,2.352941%,47.843137%);stroke-opacity:1;stroke-miterlimit:10;" d="M 92.140892 280.435154 L 98.415993 280.435154 L 86.679026 303.014605 L 80.250069 303.014605 Z M 92.140892 280.435154 " transform="matrix(1.066342,0,0,1.123982,42.695486,-64.016693)"/>
<path style="fill-rule:evenodd;fill:rgb(100%,100%,100%);fill-opacity:1;stroke-width:1.31633;stroke-linecap:round;stroke-linejoin:round;stroke:rgb(9.019608%,2.352941%,47.843137%);stroke-opacity:1;stroke-miterlimit:10;" d="M 104.262498 280.164076 L 110.537599 280.164076 L 98.800632 302.743526 L 92.371675 302.743526 Z M 104.262498 280.164076 " transform="matrix(1.066342,0,0,1.123982,42.695486,-64.016693)"/>
<path style="fill-rule:evenodd;fill:rgb(19.215687%,20%,56.470591%);fill-opacity:1;stroke-width:1.31633;stroke-linecap:round;stroke-linejoin:round;stroke:rgb(9.019608%,2.352941%,47.843137%);stroke-opacity:1;stroke-miterlimit:10;" d="M 3.109914 280.327418 L -3.165187 280.327418 L 8.57178 302.906868 L 15.000737 302.906868 Z M 3.109914 280.327418 " transform="matrix(1.066342,0,0,1.123982,42.695486,-64.016693)"/>
<path style="fill-rule:evenodd;fill:rgb(19.215687%,20%,56.470591%);fill-opacity:1;stroke-width:1.31633;stroke-linecap:round;stroke-linejoin:round;stroke:rgb(9.019608%,2.352941%,47.843137%);stroke-opacity:1;stroke-miterlimit:10;" d="M -8.755266 280.442105 L -15.030367 280.442105 L -3.297063 303.021555 L 3.131894 303.021555 Z M -8.755266 280.442105 " transform="matrix(1.066342,0,0,1.123982,42.695486,-64.016693)"/>
<path style="fill-rule:evenodd;fill:rgb(100%,100%,100%);fill-opacity:1;stroke-width:1.31633;stroke-linecap:round;stroke-linejoin:round;stroke:rgb(9.019608%,2.352941%,47.843137%);stroke-opacity:1;stroke-miterlimit:10;" d="M -3.198156 280.216206 L 3.080608 280.216206 L -8.656359 302.795657 L -15.085316 302.795657 Z M -3.198156 280.216206 " transform="matrix(1.066342,0,0,1.123982,42.695486,-64.016693)"/>
<path style=" stroke:none;fill-rule:evenodd;fill:rgb(19.215687%,20%,56.470591%);fill-opacity:1;" d="M 58.84375 251.25 L 52.152344 251.25 L 64.664062 276.632812 L 71.519531 276.632812 Z M 58.84375 251.25 "/>
<path style="fill-rule:evenodd;fill:rgb(19.215687%,20%,56.470591%);fill-opacity:1;stroke-width:1.31633;stroke-linecap:round;stroke-linejoin:round;stroke:rgb(9.019608%,2.352941%,47.843137%);stroke-opacity:1;stroke-miterlimit:10;" d="M 27.008783 280.376073 L 20.733681 280.376073 L 32.470649 302.958999 L 38.895942 302.958999 Z M 27.008783 280.376073 " transform="matrix(1.066342,0,0,1.123982,42.695486,-64.016693)"/>
<path style="fill-rule:evenodd;fill:rgb(100%,100%,100%);fill-opacity:1;stroke-width:1.31633;stroke-linecap:round;stroke-linejoin:round;stroke:rgb(9.019608%,2.352941%,47.843137%);stroke-opacity:1;stroke-miterlimit:10;" d="M 44.464041 280.244009 L 50.739143 280.244009 L 39.002176 302.826935 L 32.573219 302.826935 Z M 44.464041 280.244009 " transform="matrix(1.066342,0,0,1.123982,42.695486,-64.016693)"/>
<path style="fill:none;stroke-width:1.31633;stroke-linecap:round;stroke-linejoin:round;stroke:rgb(9.019608%,2.352941%,47.843137%);stroke-opacity:1;stroke-miterlimit:10;" d="M 15.143603 280.49076 L 8.868501 280.49076 L 20.601805 303.073686 L 27.030762 303.073686 Z M 15.143603 280.49076 " transform="matrix(1.066342,0,0,1.123982,42.695486,-64.016693)"/>
<path style="fill-rule:evenodd;fill:rgb(100%,100%,100%);fill-opacity:1;stroke-width:1.31633;stroke-linecap:round;stroke-linejoin:round;stroke:rgb(9.019608%,2.352941%,47.843137%);stroke-opacity:1;stroke-miterlimit:10;" d="M 8.608412 280.383024 L 14.883514 280.383024 L 3.146546 302.96595 L -3.28241 302.96595 Z M 8.608412 280.383024 " transform="matrix(1.066342,0,0,1.123982,42.695486,-64.016693)"/>
<path style="fill-rule:evenodd;fill:rgb(100%,100%,100%);fill-opacity:1;stroke-width:1.31633;stroke-linecap:round;stroke-linejoin:round;stroke:rgb(9.019608%,2.352941%,47.843137%);stroke-opacity:1;stroke-miterlimit:10;" d="M 20.700712 280.264861 L 26.979477 280.264861 L 15.24251 302.844312 L 8.813553 302.844312 Z M 20.700712 280.264861 " transform="matrix(1.066342,0,0,1.123982,42.695486,-64.016693)"/>
<path style="fill-rule:evenodd;fill:rgb(100%,100%,100%);fill-opacity:1;stroke-width:1.31633;stroke-linecap:round;stroke-linejoin:round;stroke:rgb(9.019608%,2.352941%,47.843137%);stroke-opacity:1;stroke-miterlimit:10;" d="M 32.507281 280.435154 L 38.782382 280.435154 L 27.045415 303.014605 L 20.616458 303.014605 Z M 32.507281 280.435154 " transform="matrix(1.066342,0,0,1.123982,42.695486,-64.016693)"/>
<path style="fill-rule:evenodd;fill:rgb(19.215687%,20%,56.470591%);fill-opacity:1;stroke-width:1.31633;stroke-linecap:round;stroke-linejoin:round;stroke:rgb(9.019608%,2.352941%,47.843137%);stroke-opacity:1;stroke-miterlimit:10;" d="M 62.743204 280.325139 L 56.468096 280.325139 L 68.205075 302.908065 L 74.634038 302.908065 Z M 62.743204 280.325139 " transform="matrix(1.066341,0,0,1.123982,42.695896,-291.4946)"/>
<path style="fill-rule:evenodd;fill:rgb(19.215687%,20%,56.470591%);fill-opacity:1;stroke-width:1.31633;stroke-linecap:round;stroke-linejoin:round;stroke:rgb(9.019608%,2.352941%,47.843137%);stroke-opacity:1;stroke-miterlimit:10;" d="M 50.878012 280.443302 L 44.602904 280.443302 L 56.339883 303.022752 L 62.765183 303.022752 Z M 50.878012 280.443302 " transform="matrix(1.066341,0,0,1.123982,42.695896,-291.4946)"/>
<path style="fill-rule:evenodd;fill:rgb(19.215687%,20%,56.470591%);fill-opacity:1;stroke-width:1.31633;stroke-linecap:round;stroke-linejoin:round;stroke:rgb(9.019608%,2.352941%,47.843137%);stroke-opacity:1;stroke-miterlimit:10;" d="M 74.773241 280.491957 L 68.498133 280.491957 L 80.235112 303.071407 L 86.664076 303.071407 Z M 74.773241 280.491957 " transform="matrix(1.066341,0,0,1.123982,42.695896,-291.4946)"/>
<path style="fill-rule:evenodd;fill:rgb(100%,100%,100%);fill-opacity:1;stroke-width:1.31633;stroke-linecap:round;stroke-linejoin:round;stroke:rgb(9.019608%,2.352941%,47.843137%);stroke-opacity:1;stroke-miterlimit:10;" d="M 68.241707 280.38422 L 74.516815 280.38422 L 62.779836 302.967146 L 56.350873 302.967146 Z M 68.241707 280.38422 " transform="matrix(1.066341,0,0,1.123982,42.695896,-291.4946)"/>
<path style="fill-rule:evenodd;fill:rgb(19.215687%,20%,56.470591%);fill-opacity:1;stroke-width:1.31633;stroke-linecap:round;stroke-linejoin:round;stroke:rgb(9.019608%,2.352941%,47.843137%);stroke-opacity:1;stroke-miterlimit:10;" d="M 86.642096 280.37727 L 80.366989 280.37727 L 92.103968 302.95672 L 98.532931 302.95672 Z M 86.642096 280.37727 " transform="matrix(1.066341,0,0,1.123982,42.695896,-291.4946)"/>
<path style="fill-rule:evenodd;fill:rgb(100%,100%,100%);fill-opacity:1;stroke-width:1.31633;stroke-linecap:round;stroke-linejoin:round;stroke:rgb(9.019608%,2.352941%,47.843137%);stroke-opacity:1;stroke-miterlimit:10;" d="M 80.337683 280.262582 L 86.612791 280.262582 L 74.875811 302.845508 L 68.446848 302.845508 Z M 80.337683 280.262582 " transform="matrix(1.066341,0,0,1.123982,42.695896,-291.4946)"/>
<path style="fill-rule:evenodd;fill:rgb(19.215687%,20%,56.470591%);fill-opacity:1;stroke-width:1.31633;stroke-linecap:round;stroke-linejoin:round;stroke:rgb(9.019608%,2.352941%,47.843137%);stroke-opacity:1;stroke-miterlimit:10;" d="M 38.902923 280.471104 L 32.627815 280.471104 L 44.361131 303.05403 L 50.790094 303.05403 Z M 38.902923 280.471104 " transform="matrix(1.066341,0,0,1.123982,42.695896,-291.4946)"/>
<path style="fill-rule:evenodd;fill:rgb(100%,100%,100%);fill-opacity:1;stroke-width:1.31633;stroke-linecap:round;stroke-linejoin:round;stroke:rgb(9.019608%,2.352941%,47.843137%);stroke-opacity:1;stroke-miterlimit:10;" d="M 56.43879 280.213927 L 62.713898 280.213927 L 50.976919 302.796853 L 44.547955 302.796853 Z M 56.43879 280.213927 " transform="matrix(1.066341,0,0,1.123982,42.695896,-291.4946)"/>
<path style="fill-rule:evenodd;fill:rgb(19.215687%,20%,56.470591%);fill-opacity:1;stroke-width:1.31633;stroke-linecap:round;stroke-linejoin:round;stroke:rgb(9.019608%,2.352941%,47.843137%);stroke-opacity:1;stroke-miterlimit:10;" d="M 110.676528 280.356417 L 104.397757 280.356417 L 116.134737 302.939343 L 122.5637 302.939343 Z M 110.676528 280.356417 " transform="matrix(1.066341,0,0,1.123982,42.695896,-291.4946)"/>
<path style="fill-rule:evenodd;fill:rgb(19.215687%,20%,56.470591%);fill-opacity:1;stroke-width:1.31633;stroke-linecap:round;stroke-linejoin:round;stroke:rgb(9.019608%,2.352941%,47.843137%);stroke-opacity:1;stroke-miterlimit:10;" d="M 98.697776 280.391171 L 92.422668 280.391171 L 104.159648 302.970622 L 110.588611 302.970622 Z M 98.697776 280.391171 " transform="matrix(1.066341,0,0,1.123982,42.695896,-291.4946)"/>
<path style="fill-rule:evenodd;fill:rgb(100%,100%,100%);fill-opacity:1;stroke-width:1.31633;stroke-linecap:round;stroke-linejoin:round;stroke:rgb(9.019608%,2.352941%,47.843137%);stroke-opacity:1;stroke-miterlimit:10;" d="M 116.237307 280.130519 L 122.512415 280.130519 L 110.775435 302.713445 L 104.346472 302.713445 Z M 116.237307 280.130519 " transform="matrix(1.066341,0,0,1.123982,42.695896,-291.4946)"/>
<path style="fill-rule:evenodd;fill:rgb(100%,100%,100%);fill-opacity:1;stroke-width:1.31633;stroke-linecap:round;stroke-linejoin:round;stroke:rgb(9.019608%,2.352941%,47.843137%);stroke-opacity:1;stroke-miterlimit:10;" d="M 92.1406 280.436351 L 98.415708 280.436351 L 86.678729 303.015801 L 80.249765 303.015801 Z M 92.1406 280.436351 " transform="matrix(1.066341,0,0,1.123982,42.695896,-291.4946)"/>
<path style="fill-rule:evenodd;fill:rgb(100%,100%,100%);fill-opacity:1;stroke-width:1.31633;stroke-linecap:round;stroke-linejoin:round;stroke:rgb(9.019608%,2.352941%,47.843137%);stroke-opacity:1;stroke-miterlimit:10;" d="M 104.262218 280.161797 L 110.537326 280.161797 L 98.800347 302.744723 L 92.371383 302.744723 Z M 104.262218 280.161797 " transform="matrix(1.066341,0,0,1.123982,42.695896,-291.4946)"/>
<path style="fill-rule:evenodd;fill:rgb(19.215687%,20%,56.470591%);fill-opacity:1;stroke-width:1.31633;stroke-linecap:round;stroke-linejoin:round;stroke:rgb(9.019608%,2.352941%,47.843137%);stroke-opacity:1;stroke-miterlimit:10;" d="M 3.109532 280.325139 L -3.165576 280.325139 L 8.571404 302.908065 L 15.00403 302.908065 Z M 3.109532 280.325139 " transform="matrix(1.066341,0,0,1.123982,42.695896,-291.4946)"/>
<path style="fill-rule:evenodd;fill:rgb(19.215687%,20%,56.470591%);fill-opacity:1;stroke-width:1.31633;stroke-linecap:round;stroke-linejoin:round;stroke:rgb(9.019608%,2.352941%,47.843137%);stroke-opacity:1;stroke-miterlimit:10;" d="M -8.75566 280.443302 L -15.030768 280.443302 L -3.297452 303.022752 L 3.131511 303.022752 Z M -8.75566 280.443302 " transform="matrix(1.066341,0,0,1.123982,42.695896,-291.4946)"/>
<path style="fill-rule:evenodd;fill:rgb(100%,100%,100%);fill-opacity:1;stroke-width:1.31633;stroke-linecap:round;stroke-linejoin:round;stroke:rgb(9.019608%,2.352941%,47.843137%);stroke-opacity:1;stroke-miterlimit:10;" d="M -3.198545 280.213927 L 3.080226 280.213927 L -8.656753 302.796853 L -15.085716 302.796853 Z M -3.198545 280.213927 " transform="matrix(1.066341,0,0,1.123982,42.695896,-291.4946)"/>
<path style=" stroke:none;fill-rule:evenodd;fill:rgb(19.215687%,20%,56.470591%);fill-opacity:1;" d="M 58.84375 23.773438 L 52.152344 23.773438 L 64.667969 49.152344 L 71.519531 49.152344 Z M 58.84375 23.773438 "/>
<path style="fill-rule:evenodd;fill:rgb(19.215687%,20%,56.470591%);fill-opacity:1;stroke-width:1.31633;stroke-linecap:round;stroke-linejoin:round;stroke:rgb(9.019608%,2.352941%,47.843137%);stroke-opacity:1;stroke-miterlimit:10;" d="M 27.008425 280.37727 L 20.733317 280.37727 L 32.470296 302.95672 L 38.895596 302.95672 Z M 27.008425 280.37727 " transform="matrix(1.066341,0,0,1.123982,42.695896,-291.4946)"/>
<path style="fill-rule:evenodd;fill:rgb(100%,100%,100%);fill-opacity:1;stroke-width:1.31633;stroke-linecap:round;stroke-linejoin:round;stroke:rgb(9.019608%,2.352941%,47.843137%);stroke-opacity:1;stroke-miterlimit:10;" d="M 44.463701 280.245206 L 50.738809 280.245206 L 39.00183 302.824656 L 32.572866 302.824656 Z M 44.463701 280.245206 " transform="matrix(1.066341,0,0,1.123982,42.695896,-291.4946)"/>
<path style="fill:none;stroke-width:1.31633;stroke-linecap:round;stroke-linejoin:round;stroke:rgb(9.019608%,2.352941%,47.843137%);stroke-opacity:1;stroke-miterlimit:10;" d="M 15.143233 280.491957 L 8.868125 280.491957 L 20.605104 303.071407 L 27.030404 303.071407 Z M 15.143233 280.491957 " transform="matrix(1.066341,0,0,1.123982,42.695896,-291.4946)"/>
<path style="fill-rule:evenodd;fill:rgb(100%,100%,100%);fill-opacity:1;stroke-width:1.31633;stroke-linecap:round;stroke-linejoin:round;stroke:rgb(9.019608%,2.352941%,47.843137%);stroke-opacity:1;stroke-miterlimit:10;" d="M 8.608036 280.38422 L 14.883144 280.38422 L 3.146164 302.967146 L -3.282799 302.967146 Z M 8.608036 280.38422 " transform="matrix(1.066341,0,0,1.123982,42.695896,-291.4946)"/>
<path style="fill-rule:evenodd;fill:rgb(100%,100%,100%);fill-opacity:1;stroke-width:1.31633;stroke-linecap:round;stroke-linejoin:round;stroke:rgb(9.019608%,2.352941%,47.843137%);stroke-opacity:1;stroke-miterlimit:10;" d="M 20.704011 280.262582 L 26.979119 280.262582 L 15.24214 302.845508 L 8.813176 302.845508 Z M 20.704011 280.262582 " transform="matrix(1.066341,0,0,1.123982,42.695896,-291.4946)"/>
<path style="fill-rule:evenodd;fill:rgb(100%,100%,100%);fill-opacity:1;stroke-width:1.31633;stroke-linecap:round;stroke-linejoin:round;stroke:rgb(9.019608%,2.352941%,47.843137%);stroke-opacity:1;stroke-miterlimit:10;" d="M 32.506928 280.436351 L 38.782036 280.436351 L 27.045057 303.015801 L 20.616094 303.015801 Z M 32.506928 280.436351 " transform="matrix(1.066341,0,0,1.123982,42.695896,-291.4946)"/>
</g>
</svg>
